<?xml version="1.0" encoding="UTF-8"?>
<svg width="80px" height="27px" viewBox="0 0 80 27" version="1.1" xmlns="http://www.w3.org/2000/svg" xmlns:xlink="http://www.w3.org/1999/xlink">
    <!-- Generator: Sketch 54.1 (76490) - https://sketchapp.com -->
    <title>Group 2</title>
    <desc>Created with Sketch.</desc>
    <g id="Symbols" stroke="none" stroke-width="1" fill="none" fill-rule="evenodd">
        <g id="#-FOOTER-3" transform="translate(-1113.000000, -144.000000)">
            <g id="Group-7">
                <g id="Group-6" transform="translate(245.000000, 105.000000)">
                    <g id="Group-5" transform="translate(776.000000, 1.000000)">
                        <g id="Group-4" transform="translate(0.000000, 39.000000)">
                            <g id="Group-2" transform="translate(93.000000, 0.000000)">
                                <rect id="container" stroke="#858585" x="-0.5" y="-0.5" width="79" height="26" rx="2"></rect>
                                <path d="M53.937693,17.5748919 L53.3671628,18.1096486 C53.2356651,18.1816757 53.1045209,18.2652973 52.9737302,18.3246757 C52.5774698,18.5035135 52.174493,18.5484865 51.8164093,18.5484865 C51.4353488,18.5484865 50.8379535,18.5242432 50.228893,18.0861081 C49.3822884,17.493027 49.012186,16.4744595 49.012186,15.5865946 C49.012186,13.7483243 50.517693,12.8467568 51.7453581,12.8467568 C52.1748465,12.8467568 52.6156465,12.9535676 52.9740837,13.1787838 C53.5700651,13.5701892 53.724186,14.0792973 53.8097302,14.3522973 L51.0051535,15.4783784 L50.0867907,15.5493514 C50.3840744,17.0562973 51.4098977,17.9329189 52.5435349,17.9329189 C53.1098233,17.9329189 53.5301209,17.7495135 53.9157767,17.5597838 C53.9154233,17.5601351 53.9928372,17.5200811 53.937693,17.5748919 L53.937693,17.5748919 Z M52.2458977,14.5768108 C52.4738977,14.4945946 52.5919628,14.4232703 52.5919628,14.2584865 C52.5919628,13.7848649 52.052893,13.2381622 51.4095442,13.2381622 C50.9326884,13.2381622 50.0383628,13.6070811 50.0383628,14.8877568 C50.0383628,15.0876757 50.0620465,15.3005946 50.0744186,15.5135135 L52.2458977,14.5768108 L52.2458977,14.5768108 Z" id="Shape" fill="#858585"></path>
                                <path d="M48.0743814,17.4828378 C48.0743814,17.9438108 48.1570977,18.0154865 48.5491163,18.0513243 C48.7534326,18.0752162 48.9570419,18.0861081 49.1588837,18.1096486 L48.7177302,18.3707027 L46.6155349,18.3707027 C46.8912558,18.0151351 46.9386233,17.98 46.9386233,17.7428378 L46.9386233,17.4782703 L46.9340279,10.4291081 L46.0057674,10.4291081 L46.8990326,10.0011622 L48.6049674,10.0011622 C48.2352186,10.2137297 48.1249302,10.3437297 48.0772093,10.7583243 L48.0743814,17.4828378 L48.0743814,17.4828378 Z" id="Shape" fill="#858585"></path>
                                <path d="M44.8141581,13.4285946 C45.0877581,13.6524054 45.6597023,14.1270811 45.6597023,15.0282973 C45.6597023,15.9063243 45.1616372,16.3202162 44.6593302,16.711973 C44.5052093,16.8662162 44.3252837,17.0334595 44.3252837,17.2920541 C44.3252837,17.5541622 44.5055628,17.6964595 44.635293,17.8025676 L45.0661953,18.1331892 C45.5900651,18.5727297 46.0676279,18.9757297 46.0676279,19.7943784 C46.0676279,20.9099189 44.9817116,22.0342432 42.9297116,22.0342432 C41.2011535,22.0342432 40.365507,21.2162973 40.365507,20.338973 C40.365507,19.9117297 40.579014,19.3070541 41.2849302,18.8931622 C42.0244279,18.4437838 43.0265674,18.3837027 43.5628093,18.3485676 C43.3952558,18.1335405 43.2040186,17.9083243 43.2040186,17.5408108 C43.2040186,17.3398378 43.2648186,17.220027 43.3234977,17.0787838 C43.1930605,17.0910811 43.0615628,17.1037297 42.9420837,17.1037297 C41.6769488,17.1037297 40.9614884,16.1656216 40.9614884,15.2408649 C40.9614884,14.6955676 41.2117581,14.0908919 41.7257302,13.6520541 C42.4058419,13.0955135 43.2167442,12.9995946 43.8611535,12.9995946 L46.3193116,12.9995946 L45.5550698,13.4285946 L44.8141581,13.4285946 L44.8141581,13.4285946 Z M43.968614,18.6921892 C43.8710512,18.6795405 43.8123721,18.6795405 43.694307,18.6795405 C43.5861395,18.6795405 42.9417302,18.7027297 42.4426047,18.8692703 C42.1785488,18.9651892 41.4153674,19.2487297 41.4153674,20.0912703 C41.4153674,20.9317027 42.2393488,21.5374324 43.5143814,21.5374324 C44.6593302,21.5374324 45.2676837,20.9917838 45.2676837,20.2571081 C45.2673302,19.6524324 44.8738977,19.3334054 43.968614,18.6921892 L43.968614,18.6921892 Z M44.3118512,16.4393243 C44.5875721,16.165973 44.6116093,15.7879189 44.6116093,15.5728919 C44.6116093,14.7201622 44.1001116,13.3920541 43.1085767,13.3920541 C42.7992744,13.3920541 42.4641674,13.5466486 42.2739907,13.7848649 C42.0725023,14.0318649 42.0120558,14.3522973 42.0120558,14.6604324 C42.0120558,15.4544865 42.4776,16.7713514 43.5027163,16.7713514 C43.801414,16.7713514 44.1230884,16.6269459 44.3118512,16.4393243 L44.3118512,16.4393243 Z" id="Shape" fill="#858585"></path>
                                <path d="M37.4184744,18.5242432 C35.5223628,18.5242432 34.5078512,17.0562973 34.5078512,15.7278378 C34.5078512,14.1752162 35.7832372,12.8467568 37.5973395,12.8467568 C39.3509953,12.8467568 40.4492837,14.2114054 40.4492837,15.6442162 C40.4492837,17.0432973 39.3637209,18.5242432 37.4184744,18.5242432 L37.4184744,18.5242432 Z M38.9101953,17.5650541 C39.1986419,17.1855946 39.2686326,16.711973 39.2686326,16.2502973 C39.2686326,15.2060811 38.768093,13.2146216 37.2887442,13.2146216 C36.8953116,13.2146216 36.4990512,13.3674595 36.2134326,13.6172703 C35.7475349,14.0322162 35.6644651,14.5532703 35.6644651,15.0648378 C35.6644651,16.2362432 36.2466605,18.1683243 37.6924279,18.1683243 C38.159386,18.1683243 38.6355349,17.9438108 38.9101953,17.5650541 L38.9101953,17.5650541 Z" id="Shape" fill="#858585"></path>
                                <path d="M31.0701767,18.5242432 C29.1737116,18.5242432 28.160614,17.0562973 28.160614,15.7278378 C28.160614,14.1752162 29.4363535,12.8467568 31.2497488,12.8467568 C33.0023442,12.8467568 34.0995721,14.2114054 34.0995721,15.6442162 C34.0999256,17.0432973 33.0157767,18.5242432 31.0701767,18.5242432 L31.0701767,18.5242432 Z M32.5622512,17.5650541 C32.8485767,17.1855946 32.9199814,16.711973 32.9199814,16.2502973 C32.9199814,15.2060811 32.4180279,13.2146216 30.940093,13.2146216 C30.5452465,13.2146216 30.1532279,13.3674595 29.8669023,13.6172703 C29.4002977,14.0322162 29.3175814,14.5532703 29.3175814,15.0648378 C29.3175814,16.2362432 29.9022512,18.1683243 31.3455442,18.1683243 C31.8114419,18.1683243 32.2868837,17.9438108 32.5622512,17.5650541 L32.5622512,17.5650541 Z" id="Shape" fill="#858585"></path>
                                <path d="M27.4027349,18.1128108 L25.8035535,18.4764595 C25.1556093,18.578 24.5737674,18.6675946 23.9576372,18.6675946 C20.8727442,18.6675946 19.6977488,16.4105135 19.6977488,14.6446216 C19.6977488,12.4873243 21.3630326,10.4877838 24.2146233,10.4877838 C24.8180279,10.4877838 25.3988093,10.575973 25.9276279,10.718973 C26.7657488,10.9533243 27.157414,11.2414324 27.4027349,11.4107838 L26.4737674,12.2877568 L26.0821023,12.3748919 L26.3613581,11.9321892 C25.9831256,11.565027 25.287814,10.8872703 23.9682419,10.8872703 C22.2039814,10.8872703 20.8727442,12.2202973 20.8727442,14.1664324 C20.8727442,16.2566216 22.3927442,18.2227838 24.829693,18.2227838 C25.5458605,18.2227838 25.9145488,18.0797838 26.2493023,17.9462703 L26.2493023,16.1543784 L24.5610419,16.2446757 L25.4560744,15.7668378 L27.825507,15.7668378 L27.536,16.0440541 C27.4575256,16.1101081 27.4472744,16.1325946 27.4253581,16.2211351 C27.413693,16.3223243 27.4030884,16.6441622 27.4030884,16.7572973 L27.4030884,18.1128108 L27.4027349,18.1128108 Z" id="Shape" fill="#858585"></path>
                                <path d="M57.3760744,17.6254865 L57.3760744,20.6457027 L56.7726698,20.6457027 L56.7726698,12.9609459 L57.3760744,12.9609459 L57.3760744,13.8358108 C57.7688,13.2704865 58.4870884,12.8218108 59.3216744,12.8218108 C60.8176372,12.8218108 61.825786,13.95 61.825786,15.7359189 C61.825786,17.5098919 60.8176372,18.6616216 59.3216744,18.6616216 C58.5341023,18.661973 57.8285395,18.2582703 57.3760744,17.6254865 L57.3760744,17.6254865 Z M61.1774884,15.7362703 C61.1774884,14.3902432 60.4715721,13.3635946 59.2198698,13.3635946 C58.4425488,13.3635946 57.6991628,13.9710811 57.3760744,14.5002162 L57.3760744,16.960027 C57.6991628,17.4905676 58.4425488,18.1198378 59.2198698,18.1198378 C60.4715721,18.1198378 61.1774884,17.0844054 61.1774884,15.7362703 L61.1774884,15.7362703 Z" id="Shape" fill="#858585"></path>
                                <polygon id="Shape" fill="#858585" points="62.6497674 18.5235405 62.6497674 10.8391351 63.2528186 10.8391351 63.2528186 18.5235405 62.6497674 18.5235405"></polygon>
                                <path d="M70.0235349,20.1485405 C70.1522047,20.2054595 70.3724279,20.2409459 70.5124093,20.2409459 C70.8814512,20.2409459 71.1384372,20.0909189 71.3692651,19.5607297 L71.8093581,18.5699189 L69.4321488,12.9609459 L70.1051907,12.9609459 L72.1441116,17.8215405 L74.1632372,12.9609459 L74.8458233,12.9609459 L71.9468651,19.7465946 C71.6460465,20.4457838 71.1727256,20.782027 70.5226605,20.782027 C70.3275349,20.782027 70.0705488,20.7472432 69.9196093,20.7015676 L70.0235349,20.1485405 L70.0235349,20.1485405 Z" id="Shape" fill="#858585"></path>
                                <path d="M68.2610419,18.507027 C68.2207442,18.3141351 68.1903442,18.1444324 68.1680744,18.0021351 C68.1493395,17.8605405 68.1390884,17.7157838 68.1390884,17.5685676 C67.9319442,17.8703784 67.6389023,18.1215946 67.2645581,18.3197568 C66.8898605,18.5186216 66.5342512,18.6166486 66.0457302,18.6166486 C65.4578791,18.6166486 65.0018791,18.4729459 64.6759628,18.1813243 C64.3514605,17.8900541 64.1881488,17.4954865 64.1881488,16.9962162 C64.1881488,16.4976486 64.4246326,16.0928919 64.896186,15.7833514 C65.3677395,15.4724054 65.977507,15.3181622 66.7314977,15.3181622 L68.1387349,15.3181622 L68.1387349,14.6267027 C68.1387349,14.2286216 68.0019349,13.9159189 67.7297488,13.6885946 C67.4561488,13.4616216 67.0722605,13.3463784 66.5741953,13.3463784 C66.1192558,13.3463784 65.750214,13.4514324 65.4691907,13.6559189 C65.1906419,13.8646216 65.0506605,14.1232162 65.0506605,14.4348649 L64.4331163,14.4348649 L64.4203907,14.405 C64.3977674,13.9851351 64.5914791,13.6162162 65.002586,13.2982432 C65.4115721,12.9802703 65.9481674,12.8204054 66.6081302,12.8204054 C67.2656186,12.8204054 67.7979721,12.9778108 68.1995349,13.2919189 C68.6003907,13.6028649 68.8015256,14.0522432 68.8015256,14.6397027 L68.8015256,17.3841081 C68.8015256,17.5812162 68.8107163,17.7716486 68.835814,17.9571622 C68.8612651,18.143027 68.9019163,18.3285405 68.956,18.5077297 L68.2610419,18.5077297 L68.2610419,18.507027 Z M66.1199628,18.0699459 C66.6325209,18.0699459 67.0008558,17.9561081 67.3776744,17.7308919 C67.7516651,17.5067297 68.0058233,17.2147568 68.1394419,16.8612973 L68.1394419,15.7931892 L66.7254884,15.7931892 C66.1853581,15.7931892 65.7381953,15.9119459 65.3864744,16.1519189 C65.0340465,16.3908378 64.8551814,16.68 64.8551814,17.0162432 C64.8551814,17.3331622 64.9682977,17.5871892 65.1934698,17.7793784 C65.4186419,17.9736757 65.7268837,18.0699459 66.1199628,18.0699459 L66.1199628,18.0699459 Z" id="Shape" fill="#858585"></path>
                                <path d="M19.6829023,4.53554054 C19.6829023,3.35464865 20.5655628,2.59537838 21.6634977,2.59537838 C22.399107,2.59537838 22.8798512,2.94391892 23.1799628,3.37151351 L22.642307,3.68105405 C22.4386977,3.39962162 22.0820279,3.18037838 21.6634977,3.18037838 C20.9169302,3.18037838 20.3619535,3.74289189 20.3619535,4.53554054 C20.3619535,5.3172973 20.9165767,5.8907027 21.6634977,5.8907027 C22.0484465,5.8907027 22.3877953,5.71643243 22.5574698,5.55340541 L22.5574698,4.97402703 L21.4259535,4.97402703 L21.4259535,4.395 L23.2138977,4.395 L23.2138977,5.79513514 C22.8462698,6.20586486 22.3142698,6.48132432 21.6634977,6.48132432 C20.5655628,6.48132432 19.6829023,5.71116216 19.6829023,4.53554054 L19.6829023,4.53554054 Z" id="Shape" fill="#858585"></path>
                                <polygon id="Shape" fill="#858585" points="24.0325767 6.40824324 24.0325767 2.65686486 26.6179907 2.65686486 26.6179907 3.23624324 24.694307 3.23624324 24.694307 4.20351351 26.5787535 4.20351351 26.5787535 4.78289189 24.694307 4.78289189 24.694307 5.82921622 26.6179907 5.82921622 26.6179907 6.40824324 24.0325767 6.40824324"></polygon>
                                <polygon id="Shape" fill="#858585" points="28.4501209 6.40824324 28.4501209 3.23659459 27.307293 3.23659459 27.307293 2.65721622 30.2550326 2.65721622 30.2550326 3.23659459 29.1125581 3.23659459 29.1125581 6.40824324"></polygon>
                                <polygon id="Shape" fill="#858585" points="32.5558884 6.40824324 32.5558884 2.65686486 33.2176186 2.65686486 33.2176186 6.40824324"></polygon>
                                <polygon id="Shape" fill="#858585" points="35.061414 6.40824324 35.061414 3.23659459 33.918586 3.23659459 33.918586 2.65721622 36.8663256 2.65721622 36.8663256 3.23659459 35.7234977 3.23659459 35.7234977 6.40824324"></polygon>
                                <path d="M39.0031628,4.53554054 C39.0031628,3.41613514 39.800986,2.59537838 40.9328558,2.59537838 C42.0583628,2.59537838 42.8621953,3.41648649 42.8621953,4.53554054 C42.8621953,5.65459459 42.0583628,6.4757027 40.9328558,6.4757027 C39.8006326,6.4757027 39.0031628,5.65459459 39.0031628,4.53554054 L39.0031628,4.53554054 Z M42.1831442,4.53554054 C42.1831442,3.75940541 41.6907349,3.18037838 40.9328558,3.18037838 C40.1689674,3.18037838 39.682214,3.75940541 39.682214,4.53554054 C39.682214,5.3057027 40.1689674,5.8907027 40.9328558,5.8907027 C41.6907349,5.8907027 42.1831442,5.3057027 42.1831442,4.53554054 L42.1831442,4.53554054 Z" id="Shape" fill="#858585"></path>
                                <polygon id="Shape" fill="#858585" points="46.2662884 6.40824324 44.2973581 3.72567568 44.2973581 6.40824324 43.6356279 6.40824324 43.6356279 2.65686486 44.3146791 2.65686486 46.2440186 5.25545946 46.2440186 2.65686486 46.9061023 2.65686486 46.9061023 6.40824324"></polygon>
                                <path d="M5.35921505,21.1086883 C5.14162733,21.0502461 5,20.8348356 5,20.5014976 L5,9.49850232 C5,9.18978059 5.11991794,8.98157027 5.31001104,8.90586902 L5.31001104,8.90586902 L10.7325583,15.037682 L5.35921505,21.1086883 L5.35921505,21.1086883 Z M6.10566765,20.87513 L12.6327032,17.1863647 L11.0429509,15.3886738 L6.10566765,20.87513 L6.10566765,20.87513 Z M12.677649,12.840045 L6.24157467,9.20184114 L11.052362,14.6763556 L12.677649,12.840045 L12.677649,12.840045 Z M13.1143314,13.0868941 L15.6356309,14.5121421 C16.1130088,14.7819957 16.1173744,15.2169968 15.6356309,15.489255 L13.050545,16.9502207 L11.3644114,15.0314573 L13.1143314,13.0868941 L13.1143314,13.0868941 Z" id="google-play" stroke="#979797" fill="#858585"></path>
                            </g>
                        </g>
                    </g>
                </g>
            </g>
        </g>
    </g>
</svg>